<?xml version="1.0" encoding="UTF-8"?>
<svg id="Layer_1" xmlns="http://www.w3.org/2000/svg" version="1.1" viewBox="0 0 600 300">
  <!-- Generator: Adobe Illustrator 29.3.0, SVG Export Plug-In . SVG Version: 2.1.0 Build 146)  -->
  <g>
    <polygon points="231.7 165.9 219.1 134.9 210.6 134.9 210.6 174.5 217 174.5 217 145.8 228.7 174.5 234.6 174.5 246.3 145.7 246.3 174.5 252.7 174.5 252.7 134.9 244.2 134.9 231.7 165.9"/>
    <path d="M279.8,149.9c-1-1.7-2.3-3-3.8-3.9-1.5-.9-3.3-1.4-5.4-1.4s-5.1.7-7.1,2c-2,1.3-3.5,3.1-4.6,5.4-1.1,2.3-1.6,4.9-1.6,7.9s.5,5.5,1.6,7.8c1.1,2.3,2.6,4.1,4.5,5.4,1.9,1.3,4.2,2,6.9,2s3.8-.5,5.5-1.4c1.7-.9,3-2.3,4.1-4v4.8h5.9v-29.3h-6v4.7ZM278.4,164.9c-.7,1.4-1.6,2.5-2.8,3.3-1.2.8-2.5,1.2-4,1.2-2.2,0-4-.8-5.5-2.5s-2.2-4-2.2-7.1.7-5.4,2.2-7.1c1.5-1.6,3.3-2.5,5.5-2.5s2.7.4,3.9,1.1c1.2.7,2.1,1.8,2.8,3.2.7,1.4,1.1,3.1,1.1,5.2s-.3,3.7-1,5.2Z"/>
    <path d="M314.4,146.6c-1.9-1.3-4.2-2-6.9-2s-3.8.5-5.5,1.4c-1.7,1-3,2.3-4.1,4.1v-5h-5.9v39.9h6.4v-15.1c1.1,1.6,2.4,2.9,3.9,3.7,1.6.9,3.3,1.3,5.2,1.3s4.9-.7,6.9-2c1.9-1.3,3.4-3.1,4.5-5.4,1.1-2.3,1.6-4.9,1.6-7.8s-.5-5.5-1.6-7.8c-1.1-2.3-2.6-4.1-4.5-5.4ZM311.7,166.9c-1.5,1.6-3.3,2.5-5.5,2.5s-2.7-.4-3.9-1.1c-1.2-.7-2.1-1.8-2.8-3.3-.7-1.4-1-3.2-1-5.2s.3-3.8,1-5.2c.7-1.4,1.6-2.5,2.8-3.2,1.2-.7,2.5-1.1,3.9-1.1,2.2,0,4,.8,5.5,2.5s2.2,4,2.2,7.1-.7,5.4-2.2,7.1Z"/>
    <path d="M335.2,136.5h-6.4v8.7h-6.2v5.5h6.2v14.7c0,2.1.4,3.9,1.2,5.4.8,1.5,1.9,2.5,3.3,3.2,1.4.7,3.1,1,4.9,1s1.9,0,2.8-.2c.8-.2,1.7-.5,2.6-.9v-5.6c-.6.3-1.1.5-1.8.6-.6.1-1.3.2-1.9.2-1.5,0-2.6-.4-3.4-1.2-.8-.8-1.2-2.1-1.2-4v-13.2h8.6v-5.5h-8.6v-8.7Z"/>
    <path d="M371.9,149.4c-1.2-1.5-2.8-2.7-4.6-3.6-1.8-.8-3.8-1.3-6.1-1.3s-5.2.7-7.3,2c-2.1,1.3-3.8,3.1-5,5.3-1.2,2.3-1.8,4.8-1.8,7.7s.6,5.7,1.8,8c1.2,2.3,2.9,4.1,5,5.4,2.1,1.3,4.7,1.9,7.5,1.9s6.5-.9,8.9-2.8c2.4-1.9,4-4.4,4.7-7.7h-6.4c-.4,1.7-1.2,3.1-2.5,4-1.3,1-2.9,1.4-4.8,1.4s-3.1-.4-4.2-1.2c-1.2-.8-2-2-2.6-3.5-.4-1.1-.7-2.4-.8-3.9h21.4c.3-2.4.2-4.6-.4-6.6-.6-2-1.5-3.8-2.7-5.3ZM353.7,157.3c.1-1.2.4-2.2.8-3.2.6-1.5,1.5-2.7,2.6-3.5,1.1-.8,2.5-1.2,4-1.2s3.8.7,5,2.1c1.3,1.4,2,3.3,2.1,5.8h-14.6Z"/>
    <path d="M386.8,151.2v-6h-5.9v29.3h6.4v-14.7c0-2.2.5-3.9,1.4-5.2.9-1.3,2.2-2.1,3.8-2.6,1.6-.5,3.5-.7,5.6-.5v-6.7c-2.4,0-4.6.6-6.6,1.7-2.1,1.1-3.6,2.7-4.7,4.6Z"/>
    <path d="M417.5,144.6c-2,0-3.7.5-5.2,1.4-1.4.9-2.6,2.1-3.6,3.6v-14.6h-6.4v39.6h6.4v-16.3c0-1.7.3-3.1.9-4.3.6-1.2,1.3-2,2.3-2.7,1-.6,2.1-.9,3.2-.9,1.9,0,3.4.6,4.4,1.9,1,1.3,1.5,3.1,1.5,5.5v16.8h6.4v-19c0-3.5-.9-6.2-2.7-8.1-1.8-1.9-4.2-2.8-7.2-2.8Z"/>
    <path d="M456.6,149c-1.3-1.4-2.8-2.5-4.6-3.2-1.8-.8-3.7-1.2-5.8-1.2s-4.1.4-5.8,1.2c-1.8.8-3.3,1.8-4.6,3.2-1.3,1.4-2.3,3-3.1,4.8-.7,1.8-1.1,3.8-1.1,6s.4,4.2,1.1,6c.7,1.8,1.8,3.5,3.1,4.8,1.3,1.4,2.8,2.5,4.6,3.2s3.7,1.1,5.8,1.1,4-.4,5.8-1.1,3.3-1.8,4.6-3.2c1.3-1.4,2.3-3,3.1-4.8.7-1.8,1.1-3.8,1.1-6s-.4-4.2-1.1-6c-.7-1.8-1.8-3.4-3.1-4.8ZM453.1,164.9c-.7,1.4-1.7,2.5-2.9,3.3-1.2.8-2.5,1.1-4,1.1s-2.8-.4-4-1.1c-1.2-.8-2.2-1.8-2.9-3.3-.7-1.4-1.1-3.1-1.1-5.1s.4-3.7,1.1-5.2c.7-1.4,1.7-2.5,2.9-3.2,1.2-.7,2.6-1.1,4-1.1s2.8.4,4,1.1c1.2.7,2.1,1.8,2.9,3.2.7,1.4,1.1,3.1,1.1,5.2s-.4,3.7-1.1,5.1Z"/>
    <path d="M471.2,151.2v-6h-5.9v29.3h6.4v-14.7c0-2.2.5-3.9,1.4-5.2.9-1.3,2.2-2.1,3.8-2.6,1.6-.5,3.5-.7,5.6-.5v-6.7c-2.4,0-4.6.6-6.6,1.7-2.1,1.1-3.6,2.7-4.7,4.6Z"/>
    <path d="M509.1,147.4c-1.8-1.9-4.2-2.8-7.2-2.8s-3.8.5-5.4,1.4c-1.6.9-2.9,2.2-3.9,3.8v-4.6h-5.9v29.3h6.4v-16.3c0-1.7.3-3.1.9-4.3.6-1.2,1.3-2,2.3-2.7,1-.6,2.1-.9,3.2-.9,1.9,0,3.4.6,4.4,1.9,1,1.3,1.5,3.1,1.5,5.5v16.8h6.4v-19c0-3.5-.9-6.2-2.7-8.1Z"/>
  </g>
  <polygon points="139.5 123.2 134.8 118.2 131.8 122.9 131.1 130.7 144.8 131.2 140.7 124.5 139.5 123.2"/>
  <polygon points="144.7 133.2 130.5 132.7 125.6 138.7 141.8 137.2 144.7 133.2"/>
  <polygon points="108.5 167 91.7 176.6 102.9 176.6 103.5 176.8 113 184.1 120.2 176.8 128.1 172 108.5 167"/>
  <polygon points="122.8 153.8 118.6 153.8 110 165.3 130.2 170.5 139.1 153.5 122.8 153.8"/>
  <rect x="120.1" y="157.5" width="0" height="20.8" transform="translate(-72.4 242.3) rotate(-75.6)"/>
  <polygon points="145.5 128.5 146.9 130.9 153.8 127.4 149.1 124.3 143.2 124.8 145.5 128.5"/>
  <polygon points="143.2 124.8 143.2 124.8 145.5 128.5 143.2 124.8"/>
  <polygon points="161.9 139.3 155.4 128.8 148.7 132.3 161.9 139.3"/>
  <rect x="148.3" y="130.5" width="7.5" height="0" transform="translate(-42.3 81.8) rotate(-26.6)"/>
  <polygon points="142.9 142 141.9 151.2 148.9 149.9 163.9 147.1 163.8 142.5 146.9 133.6 143.3 138.6 142.9 142"/>
  <rect x="155.3" y="128.5" width="0" height="19.1" transform="translate(-39.5 210.2) rotate(-62)"/>
  <polygon points="181.6 160.1 176.4 157.5 160.9 173.1 159.6 174.5 193.3 174.5 181.6 160.1"/>
  <polygon points="156.8 174.4 174.8 156.3 172.6 153.6 169.8 151.8 164.8 148.9 141.5 153.3 134.7 166.2 132.2 170.9 156.8 174.4"/>
  <polygon points="132.2 170.9 134.7 166.2 132.2 170.9 132.2 170.9"/>
  <polygon points="115.9 184.1 126.3 182.7 140.1 182.7 153.8 176 130.9 172.7 121.3 178.5 115.9 184.1"/>
  <polygon points="115.9 184 115.9 184 121.3 178.4 115.9 184"/>
  <rect x="142.4" y="162.8" width="0" height="23.1" transform="translate(-50.5 290.4) rotate(-81.8)"/>
  <polygon points="146 120.4 137.7 118.3 141.9 122.9 147.5 122.4 146 120.4"/>
  <rect x="141.9" y="122.7" width="5.6" height="0" transform="translate(-44.4 138.2) rotate(-45)"/>
  <polygon points="141.2 139.3 124.1 140.8 119.5 151.8 139.9 151.5 141.2 139.3"/>
  <rect x="129.7" y="141.5" width="0" height="20.4" transform="translate(-63.9 199.9) rotate(-63.4)"/>
  <rect x="134.4" y="145.4" width="12.2" height="0" transform="translate(-18.8 269.9) rotate(-84)"/>
  <rect x="139.9" y="151.5" width="0" height="0"/>
</svg>