<?xml version="1.0" encoding="UTF-8"?>
<svg id="Layer_1" xmlns="http://www.w3.org/2000/svg" version="1.1" viewBox="0 0 140 140">
  <!-- Generator: Adobe Illustrator 29.3.0, SVG Export Plug-In . SVG Version: 2.1.0 Build 146)  -->
  <defs>
    <style>
      .st0 {
        fill: #9f0;
      }

      .st1 {
        fill: #ea0043;
      }

      .st2 {
        fill: #164ab7;
      }

      .st3 {
        fill: #41ff00;
      }

      .st4 {
        fill: #03d8a0;
      }

      .st5 {
        fill: #f4ff00;
      }

      .st6 {
        fill: #bf01ff;
      }

      .st7 {
        fill: #c1ff00;
      }

      .st8 {
        fill: #7f06ff;
      }

      .st9 {
        fill: #ff7b00;
      }

      .st10 {
        fill: #ff008f;
      }

      .st11 {
        fill: #5a20c2;
      }
    </style>
  </defs>
  <rect width="140" height="140"/>
  <g>
    <line x1="70.7" y1="56.2" x2="75.3" y2="49.8"/>
    <polyline class="st5" points="75.3 49.8 69.8 40.8 69.8 40.8 69.8 40.8 62.4 32.8 58.3 39.4 57.4 49.2 75.3 49.8"/>
    <polygon class="st7" points="70.7 56.2 50.3 58 57.4 49.2 75.3 49.8 70.7 56.2"/>
    <polygon class="st4" points="58.2 92.3 34 86 12.1 98.7 28.2 98.7 39.2 107.2 47.4 98.7 58.2 92.3"/>
    <polyline class="st3" points="58.2 92.3 34 86 44.5 72 69.1 71.5 69.1 71.5 58.2 92.3"/>
    <polygon class="st1" points="75.3 49.8 85.1 44.7 78.3 40.1 69.8 40.8 75.3 49.8"/>
    <polygon class="st10" points="75.3 49.8 94.9 60.2 85.1 44.7 75.3 49.8"/>
    <polygon class="st6" points="75.3 49.8 70.7 56.2 69.1 71.5 95.1 66.6 94.9 60.2 75.3 49.8"/>
    <polygon class="st11" points="113.7 79 107.2 75.7 86.7 96.4 127.9 96.4 113.7 79"/>
    <polyline class="st8" points="86.7 96.4 107.2 75.7 104 72 100.9 69.9 95.1 66.6 69.1 71.5 58.2 92.3 86.7 96.4"/>
    <polygon class="st2" points="47.4 98.7 39.2 107.2 53.4 105.2 68.6 105.2 86.7 96.4 58.2 92.3 47.4 98.7"/>
    <polyline class="st9" points="69.8 40.8 69.8 40.8 78.3 40.1 75.3 36.1 62.4 32.8 69.8 40.8"/>
    <polygon class="st0" points="44.5 72 50.3 58 70.7 56.2 69.1 71.5 44.5 72"/>
  </g>
</svg>