<?xml version="1.0" encoding="UTF-8"?>
<svg id="Layer_1" xmlns="http://www.w3.org/2000/svg" version="1.1" viewBox="0 0 140 140">
  <!-- Generator: Adobe Illustrator 29.3.0, SVG Export Plug-In . SVG Version: 2.1.0 Build 146)  -->
  <defs>
    <style>
      .st0 {
        isolation: isolate;
        opacity: .7;
      }

      .st1 {
        fill: #b7b7b7;
      }
    </style>
  </defs>
  <g class="st0">
    <circle class="st1" cx="134.7" cy="5.3" r="1"/>
    <circle class="st1" cx="121.8" cy="5.3" r="1"/>
    <circle class="st1" cx="108.8" cy="5.3" r="1"/>
    <circle class="st1" cx="95.9" cy="5.3" r="1"/>
    <circle class="st1" cx="82.9" cy="5.3" r="1"/>
    <circle class="st1" cx="70" cy="5.3" r="1"/>
    <circle class="st1" cx="57.1" cy="5.3" r="1"/>
    <circle class="st1" cx="44.1" cy="5.3" r="1"/>
    <circle class="st1" cx="31.2" cy="5.3" r="1"/>
    <circle class="st1" cx="18.2" cy="5.3" r="1"/>
    <circle class="st1" cx="5.3" cy="5.3" r="1"/>
  </g>
  <g class="st0">
    <circle class="st1" cx="134.7" cy="18.2" r="1"/>
    <circle class="st1" cx="121.8" cy="18.2" r="1"/>
    <circle class="st1" cx="108.8" cy="18.2" r="1"/>
    <circle class="st1" cx="95.9" cy="18.2" r="1"/>
    <circle class="st1" cx="82.9" cy="18.2" r="1"/>
    <circle class="st1" cx="70" cy="18.2" r="1"/>
    <circle class="st1" cx="57.1" cy="18.2" r="1"/>
    <circle class="st1" cx="44.1" cy="18.2" r="1"/>
    <circle class="st1" cx="31.2" cy="18.2" r="1"/>
    <circle class="st1" cx="18.2" cy="18.2" r="1"/>
    <circle class="st1" cx="5.3" cy="18.2" r="1"/>
  </g>
  <g class="st0">
    <circle class="st1" cx="134.7" cy="31.2" r="1"/>
    <circle class="st1" cx="121.8" cy="31.2" r="1"/>
    <circle class="st1" cx="108.8" cy="31.2" r="1"/>
    <circle class="st1" cx="95.9" cy="31.2" r="1"/>
    <circle class="st1" cx="82.9" cy="31.2" r="1"/>
    <circle class="st1" cx="70" cy="31.2" r="1"/>
    <circle class="st1" cx="57.1" cy="31.2" r="1"/>
    <circle class="st1" cx="44.1" cy="31.2" r="1"/>
    <circle class="st1" cx="31.2" cy="31.2" r="1"/>
    <circle class="st1" cx="18.2" cy="31.2" r="1"/>
    <circle class="st1" cx="5.3" cy="31.2" r="1"/>
  </g>
  <g class="st0">
    <circle class="st1" cx="134.7" cy="44.1" r="1"/>
    <circle class="st1" cx="121.8" cy="44.1" r="1"/>
    <circle class="st1" cx="108.8" cy="44.1" r="1"/>
    <circle class="st1" cx="95.9" cy="44.1" r="1"/>
    <circle class="st1" cx="82.9" cy="44.1" r="1"/>
    <circle class="st1" cx="70" cy="44.1" r="1"/>
    <circle class="st1" cx="57.1" cy="44.1" r="1"/>
    <circle class="st1" cx="44.1" cy="44.1" r="1"/>
    <circle class="st1" cx="31.2" cy="44.1" r="1"/>
    <circle class="st1" cx="18.2" cy="44.1" r="1"/>
    <circle class="st1" cx="5.3" cy="44.1" r="1"/>
  </g>
  <g class="st0">
    <circle class="st1" cx="134.7" cy="57.1" r="1"/>
    <circle class="st1" cx="121.8" cy="57.1" r="1"/>
    <circle class="st1" cx="108.8" cy="57.1" r="1"/>
    <circle class="st1" cx="95.9" cy="57.1" r="1"/>
    <circle class="st1" cx="82.9" cy="57.1" r="1"/>
    <circle class="st1" cx="70" cy="57.1" r="1"/>
    <circle class="st1" cx="57.1" cy="57.1" r="1"/>
    <circle class="st1" cx="44.1" cy="57.1" r="1"/>
    <circle class="st1" cx="31.2" cy="57.1" r="1"/>
    <circle class="st1" cx="18.2" cy="57.1" r="1"/>
    <circle class="st1" cx="5.3" cy="57.1" r="1"/>
  </g>
  <g class="st0">
    <circle class="st1" cx="134.7" cy="70" r="1"/>
    <circle class="st1" cx="121.8" cy="70" r="1"/>
    <circle class="st1" cx="108.8" cy="70" r="1"/>
    <circle class="st1" cx="95.9" cy="70" r="1"/>
    <circle class="st1" cx="82.9" cy="70" r="1"/>
    <circle class="st1" cx="70" cy="70" r="1"/>
    <circle class="st1" cx="57.1" cy="70" r="1"/>
    <circle class="st1" cx="44.1" cy="70" r="1"/>
    <circle class="st1" cx="31.2" cy="70" r="1"/>
    <circle class="st1" cx="18.2" cy="70" r="1"/>
    <circle class="st1" cx="5.3" cy="70" r="1"/>
  </g>
  <g class="st0">
    <circle class="st1" cx="134.7" cy="82.9" r="1"/>
    <circle class="st1" cx="121.8" cy="82.9" r="1"/>
    <circle class="st1" cx="108.8" cy="82.9" r="1"/>
    <circle class="st1" cx="95.9" cy="82.9" r="1"/>
    <circle class="st1" cx="82.9" cy="82.9" r="1"/>
    <circle class="st1" cx="70" cy="82.9" r="1"/>
    <circle class="st1" cx="57.1" cy="82.9" r="1"/>
    <circle class="st1" cx="44.1" cy="82.9" r="1"/>
    <circle class="st1" cx="31.2" cy="82.9" r="1"/>
    <circle class="st1" cx="18.2" cy="82.9" r="1"/>
    <circle class="st1" cx="5.3" cy="82.9" r="1"/>
  </g>
  <g class="st0">
    <circle class="st1" cx="134.7" cy="95.9" r="1"/>
    <circle class="st1" cx="121.8" cy="95.9" r="1"/>
    <circle class="st1" cx="108.8" cy="95.9" r="1"/>
    <circle class="st1" cx="95.9" cy="95.9" r="1"/>
    <circle class="st1" cx="82.9" cy="95.9" r="1"/>
    <circle class="st1" cx="70" cy="95.9" r="1"/>
    <circle class="st1" cx="57.1" cy="95.9" r="1"/>
    <circle class="st1" cx="44.1" cy="95.9" r="1"/>
    <circle class="st1" cx="31.2" cy="95.9" r="1"/>
    <circle class="st1" cx="18.2" cy="95.9" r="1"/>
    <circle class="st1" cx="5.3" cy="95.9" r="1"/>
  </g>
  <g class="st0">
    <circle class="st1" cx="134.7" cy="108.8" r="1"/>
    <circle class="st1" cx="121.8" cy="108.8" r="1"/>
    <circle class="st1" cx="108.8" cy="108.8" r="1"/>
    <circle class="st1" cx="95.9" cy="108.8" r="1"/>
    <circle class="st1" cx="82.9" cy="108.8" r="1"/>
    <circle class="st1" cx="70" cy="108.8" r="1"/>
    <circle class="st1" cx="57.1" cy="108.8" r="1"/>
    <circle class="st1" cx="44.1" cy="108.8" r="1"/>
    <circle class="st1" cx="31.2" cy="108.8" r="1"/>
    <circle class="st1" cx="18.2" cy="108.8" r="1"/>
    <circle class="st1" cx="5.3" cy="108.8" r="1"/>
  </g>
  <g class="st0">
    <circle class="st1" cx="134.7" cy="121.8" r="1"/>
    <circle class="st1" cx="121.8" cy="121.8" r="1"/>
    <circle class="st1" cx="108.8" cy="121.8" r="1"/>
    <circle class="st1" cx="95.9" cy="121.8" r="1"/>
    <circle class="st1" cx="82.9" cy="121.8" r="1"/>
    <circle class="st1" cx="70" cy="121.8" r="1"/>
    <circle class="st1" cx="57.1" cy="121.8" r="1"/>
    <circle class="st1" cx="44.1" cy="121.8" r="1"/>
    <circle class="st1" cx="31.2" cy="121.8" r="1"/>
    <circle class="st1" cx="18.2" cy="121.8" r="1"/>
    <circle class="st1" cx="5.3" cy="121.8" r="1"/>
  </g>
  <g class="st0">
    <circle class="st1" cx="134.7" cy="134.7" r="1"/>
    <circle class="st1" cx="121.8" cy="134.7" r="1"/>
    <circle class="st1" cx="108.8" cy="134.7" r="1"/>
    <circle class="st1" cx="95.9" cy="134.7" r="1"/>
    <circle class="st1" cx="82.9" cy="134.7" r="1"/>
    <circle class="st1" cx="70" cy="134.7" r="1"/>
    <circle class="st1" cx="57.1" cy="134.7" r="1"/>
    <circle class="st1" cx="44.1" cy="134.7" r="1"/>
    <circle class="st1" cx="31.2" cy="134.7" r="1"/>
    <circle class="st1" cx="18.2" cy="134.7" r="1"/>
    <circle class="st1" cx="5.3" cy="134.7" r="1"/>
  </g>
</svg>