<?xml version="1.0" encoding="UTF-8"?>
<svg id="Layer_1" xmlns="http://www.w3.org/2000/svg" version="1.1" viewBox="0 0 140 140">
  <!-- Generator: Adobe Illustrator 29.3.0, SVG Export Plug-In . SVG Version: 2.1.0 Build 146)  -->
  <defs>
    <style>
      .st0 {
        fill: none;
      }

      .st1 {
        fill: #9f0;
      }

      .st2 {
        fill: #ea0043;
      }

      .st3 {
        fill: #164ab7;
      }

      .st4 {
        fill: #41ff00;
      }

      .st5 {
        fill: #ccc;
      }

      .st6 {
        fill: #03d8a0;
      }

      .st7 {
        fill: #f4ff00;
      }

      .st8 {
        opacity: .6;
      }

      .st9 {
        fill: #bf01ff;
      }

      .st10 {
        fill: #c1ff00;
      }

      .st11 {
        fill: #7f06ff;
      }

      .st12 {
        fill: #ff7b00;
      }

      .st13 {
        fill: #ff008f;
      }

      .st14 {
        fill: #5a20c2;
      }
    </style>
  </defs>
  <rect x=".4" y="0" width="140" height="140"/>
  <g class="st8">
    <circle class="st5" cx="135" cy="5.3" r="1"/>
    <circle class="st5" cx="122.1" cy="5.3" r="1"/>
    <circle class="st5" cx="109.2" cy="5.3" r="1"/>
    <circle class="st5" cx="96.2" cy="5.3" r="1"/>
    <circle class="st5" cx="83.3" cy="5.3" r="1"/>
    <circle class="st5" cx="70.4" cy="5.3" r="1"/>
    <circle class="st5" cx="57.4" cy="5.3" r="1"/>
    <circle class="st5" cx="44.5" cy="5.3" r="1"/>
    <circle class="st5" cx="31.5" cy="5.3" r="1"/>
    <circle class="st5" cx="18.6" cy="5.3" r="1"/>
    <circle class="st5" cx="5.7" cy="5.3" r="1"/>
  </g>
  <g class="st8">
    <circle class="st5" cx="135" cy="18.2" r="1"/>
    <circle class="st5" cx="122.1" cy="18.2" r="1"/>
    <circle class="st5" cx="109.2" cy="18.2" r="1"/>
    <circle class="st5" cx="96.2" cy="18.2" r="1"/>
    <circle class="st5" cx="83.3" cy="18.2" r="1"/>
    <circle class="st5" cx="70.4" cy="18.2" r="1"/>
    <circle class="st5" cx="57.4" cy="18.2" r="1"/>
    <circle class="st5" cx="44.5" cy="18.2" r="1"/>
    <circle class="st5" cx="31.5" cy="18.2" r="1"/>
    <circle class="st5" cx="18.6" cy="18.2" r="1"/>
    <circle class="st5" cx="5.7" cy="18.2" r="1"/>
  </g>
  <g class="st8">
    <circle class="st5" cx="135" cy="31.2" r="1"/>
    <circle class="st5" cx="122.1" cy="31.2" r="1"/>
    <circle class="st5" cx="109.2" cy="31.2" r="1"/>
    <circle class="st5" cx="96.2" cy="31.2" r="1"/>
    <circle class="st5" cx="83.3" cy="31.2" r="1"/>
    <circle class="st5" cx="70.4" cy="31.2" r="1"/>
    <circle class="st5" cx="57.4" cy="31.2" r="1"/>
    <circle class="st5" cx="44.5" cy="31.2" r="1"/>
    <circle class="st5" cx="31.5" cy="31.2" r="1"/>
    <circle class="st5" cx="18.6" cy="31.2" r="1"/>
    <circle class="st5" cx="5.7" cy="31.2" r="1"/>
  </g>
  <g class="st8">
    <circle class="st5" cx="135" cy="44.1" r="1"/>
    <circle class="st5" cx="122.1" cy="44.1" r="1"/>
    <circle class="st5" cx="109.2" cy="44.1" r="1"/>
    <circle class="st5" cx="96.2" cy="44.1" r="1"/>
    <circle class="st0" cx="83.3" cy="44.1" r="1"/>
    <circle class="st0" cx="70.4" cy="44.1" r="1"/>
    <circle class="st0" cx="57.4" cy="44.1" r="1"/>
    <circle class="st5" cx="44.5" cy="44.1" r="1"/>
    <circle class="st5" cx="31.5" cy="44.1" r="1"/>
    <circle class="st5" cx="18.6" cy="44.1" r="1"/>
    <circle class="st5" cx="5.7" cy="44.1" r="1"/>
  </g>
  <g class="st8">
    <circle class="st5" cx="135" cy="57.1" r="1"/>
    <circle class="st5" cx="122.1" cy="57.1" r="1"/>
    <circle class="st5" cx="109.2" cy="57.1" r="1"/>
    <circle class="st5" cx="96.2" cy="57.1" r="1"/>
    <circle class="st0" cx="83.3" cy="57.1" r="1"/>
    <circle class="st0" cx="70.4" cy="57.1" r="1"/>
    <circle class="st0" cx="57.4" cy="57.1" r="1"/>
    <circle class="st5" cx="44.5" cy="57.1" r="1"/>
    <circle class="st5" cx="31.5" cy="57.1" r="1"/>
    <circle class="st5" cx="18.6" cy="57.1" r="1"/>
    <circle class="st5" cx="5.7" cy="57.1" r="1"/>
  </g>
  <g class="st8">
    <circle class="st5" cx="135" cy="70" r="1"/>
    <circle class="st5" cx="122.1" cy="70" r="1"/>
    <circle class="st5" cx="109.2" cy="70" r="1"/>
    <circle class="st0" cx="96.2" cy="70" r="1"/>
    <circle class="st0" cx="83.3" cy="70" r="1"/>
    <circle class="st0" cx="70.4" cy="70" r="1"/>
    <circle class="st0" cx="57.4" cy="70" r="1"/>
    <circle class="st0" cx="44.5" cy="70" r="1"/>
    <circle class="st5" cx="31.5" cy="70" r="1"/>
    <circle class="st5" cx="18.6" cy="70" r="1"/>
    <circle class="st5" cx="5.7" cy="70" r="1"/>
  </g>
  <g class="st8">
    <circle class="st5" cx="135" cy="82.9" r="1"/>
    <circle class="st5" cx="122.1" cy="82.9" r="1"/>
    <circle class="st0" cx="109.2" cy="82.9" r="1"/>
    <circle class="st0" cx="96.2" cy="82.9" r="1"/>
    <circle class="st0" cx="83.3" cy="82.9" r="1"/>
    <circle class="st0" cx="70.4" cy="82.9" r="1"/>
    <circle class="st0" cx="57.4" cy="82.9" r="1"/>
    <circle class="st0" cx="44.5" cy="82.9" r="1"/>
    <circle class="st5" cx="31.5" cy="82.9" r="1"/>
    <circle class="st5" cx="18.6" cy="82.9" r="1"/>
    <circle class="st5" cx="5.7" cy="82.9" r="1"/>
  </g>
  <g class="st8">
    <circle class="st5" cx="135" cy="95.9" r="1"/>
    <circle class="st0" cx="122.1" cy="95.9" r="1"/>
    <circle class="st0" cx="109.2" cy="95.9" r="1"/>
    <circle class="st0" cx="96.2" cy="95.9" r="1"/>
    <circle class="st0" cx="83.3" cy="95.9" r="1"/>
    <circle class="st0" cx="70.4" cy="95.9" r="1"/>
    <circle class="st0" cx="57.4" cy="95.9" r="1"/>
    <circle class="st0" cx="44.5" cy="95.9" r="1"/>
    <circle class="st0" cx="31.5" cy="95.9" r="1"/>
    <circle class="st0" cx="18.6" cy="95.9" r="1"/>
    <circle class="st5" cx="5.7" cy="95.9" r="1"/>
  </g>
  <g class="st8">
    <circle class="st5" cx="135" cy="108.8" r="1"/>
    <circle class="st5" cx="122.1" cy="108.8" r="1"/>
    <circle class="st5" cx="109.2" cy="108.8" r="1"/>
    <circle class="st5" cx="96.2" cy="108.8" r="1"/>
    <circle class="st5" cx="83.3" cy="108.8" r="1"/>
    <circle class="st0" cx="70.4" cy="108.8" r="1"/>
    <circle class="st0" cx="57.4" cy="108.8" r="1"/>
    <circle class="st0" cx="44.5" cy="108.8" r="1"/>
    <circle class="st5" cx="31.5" cy="108.8" r="1"/>
    <circle class="st5" cx="18.6" cy="108.8" r="1"/>
    <circle class="st5" cx="5.7" cy="108.8" r="1"/>
  </g>
  <g class="st8">
    <circle class="st5" cx="135" cy="121.8" r="1"/>
    <circle class="st5" cx="122.1" cy="121.8" r="1"/>
    <circle class="st5" cx="109.2" cy="121.8" r="1"/>
    <circle class="st5" cx="96.2" cy="121.8" r="1"/>
    <circle class="st5" cx="83.3" cy="121.8" r="1"/>
    <circle class="st5" cx="70.4" cy="121.8" r="1"/>
    <circle class="st5" cx="57.4" cy="121.8" r="1"/>
    <circle class="st5" cx="44.5" cy="121.8" r="1"/>
    <circle class="st5" cx="31.5" cy="121.8" r="1"/>
    <circle class="st5" cx="18.6" cy="121.8" r="1"/>
    <circle class="st5" cx="5.7" cy="121.8" r="1"/>
  </g>
  <g class="st8">
    <circle class="st5" cx="135" cy="134.7" r="1"/>
    <circle class="st5" cx="122.1" cy="134.7" r="1"/>
    <circle class="st5" cx="109.2" cy="134.7" r="1"/>
    <circle class="st5" cx="96.2" cy="134.7" r="1"/>
    <circle class="st5" cx="83.3" cy="134.7" r="1"/>
    <circle class="st5" cx="70.4" cy="134.7" r="1"/>
    <circle class="st5" cx="57.4" cy="134.7" r="1"/>
    <circle class="st5" cx="44.5" cy="134.7" r="1"/>
    <circle class="st5" cx="31.5" cy="134.7" r="1"/>
    <circle class="st5" cx="18.6" cy="134.7" r="1"/>
    <circle class="st5" cx="5.7" cy="134.7" r="1"/>
  </g>
  <g>
    <line x1="71" y1="58.3" x2="75.6" y2="51.9"/>
    <polyline class="st7" points="75.6 51.9 70.1 42.9 70.1 42.9 70.1 42.9 62.8 35 58.7 41.5 57.8 51.3 75.6 51.9"/>
    <polygon class="st10" points="71 58.3 50.6 60.1 57.8 51.3 75.6 51.9 71 58.3"/>
    <polygon class="st6" points="58.5 94.4 34.4 88.2 12.5 100.8 28.5 100.8 39.6 109.3 47.8 100.9 58.5 94.4"/>
    <polyline class="st4" points="58.5 94.4 34.4 88.2 44.9 74.1 69.4 73.7 69.4 73.7 58.5 94.4"/>
    <polygon class="st2" points="75.6 51.9 85.5 46.8 78.6 42.3 70.1 42.9 75.6 51.9"/>
    <polygon class="st13" points="75.6 51.9 95.2 62.4 85.5 46.8 75.6 51.9"/>
    <polygon class="st9" points="75.6 51.9 71 58.3 69.4 73.7 95.5 68.8 95.2 62.4 75.6 51.9"/>
    <polygon class="st14" points="114.1 81.1 107.5 77.9 87 98.5 128.2 98.5 114.1 81.1"/>
    <polyline class="st11" points="87 98.5 107.5 77.9 104.4 74.1 101.3 72 95.5 68.8 69.4 73.7 58.5 94.4 87 98.5"/>
    <polygon class="st3" points="47.8 100.9 39.6 109.3 53.8 107.4 68.9 107.4 87 98.5 58.5 94.4 47.8 100.9"/>
    <polyline class="st12" points="70.1 42.9 70.1 42.9 78.6 42.3 75.6 38.2 62.8 35 70.1 42.9"/>
    <polygon class="st1" points="44.9 74.1 50.6 60.1 71 58.3 69.4 73.7 44.9 74.1"/>
  </g>
</svg>