<?xml version="1.0" encoding="UTF-8"?>
<svg id="Layer_1" xmlns="http://www.w3.org/2000/svg" version="1.1" viewBox="0 0 140 140">
  <!-- Generator: Adobe Illustrator 29.3.0, SVG Export Plug-In . SVG Version: 2.1.0 Build 146)  -->
  <defs>
    <style>
      .st0 {
        fill: none;
      }

      .st1 {
        fill: #9f0;
      }

      .st2 {
        fill: #ea0043;
      }

      .st3 {
        fill: #164ab7;
      }

      .st4 {
        fill: #41ff00;
      }

      .st5 {
        fill: #b7b7b7;
        opacity: .7;
      }

      .st6 {
        fill: #03d8a0;
      }

      .st7 {
        fill: #f4ff00;
      }

      .st8 {
        opacity: .7;
      }

      .st9 {
        fill: #bf01ff;
      }

      .st10 {
        fill: #c1ff00;
      }

      .st11 {
        fill: #7f06ff;
      }

      .st12 {
        fill: #ff7b00;
      }

      .st13 {
        fill: #ff008f;
      }

      .st14 {
        fill: #5a20c2;
      }
    </style>
  </defs>
  <g class="st8">
    <circle class="st5" cx="134.7" cy="5.3" r="1"/>
    <circle class="st5" cx="121.8" cy="5.3" r="1"/>
    <circle class="st5" cx="108.8" cy="5.3" r="1"/>
    <circle class="st5" cx="95.9" cy="5.3" r="1"/>
    <circle class="st5" cx="82.9" cy="5.3" r="1"/>
    <circle class="st5" cx="70" cy="5.3" r="1"/>
    <circle class="st5" cx="57.1" cy="5.3" r="1"/>
    <circle class="st5" cx="44.1" cy="5.3" r="1"/>
    <circle class="st5" cx="31.2" cy="5.3" r="1"/>
    <circle class="st5" cx="18.2" cy="5.3" r="1"/>
    <circle class="st5" cx="5.3" cy="5.3" r="1"/>
  </g>
  <g class="st8">
    <circle class="st5" cx="134.7" cy="18.2" r="1"/>
    <circle class="st5" cx="121.8" cy="18.2" r="1"/>
    <circle class="st5" cx="108.8" cy="18.2" r="1"/>
    <circle class="st5" cx="95.9" cy="18.2" r="1"/>
    <circle class="st5" cx="82.9" cy="18.2" r="1"/>
    <circle class="st5" cx="70" cy="18.2" r="1"/>
    <circle class="st5" cx="57.1" cy="18.2" r="1"/>
    <circle class="st5" cx="44.1" cy="18.2" r="1"/>
    <circle class="st5" cx="31.2" cy="18.2" r="1"/>
    <circle class="st5" cx="18.2" cy="18.2" r="1"/>
    <circle class="st5" cx="5.3" cy="18.2" r="1"/>
  </g>
  <g class="st8">
    <circle class="st5" cx="134.7" cy="31.2" r="1"/>
    <circle class="st5" cx="121.8" cy="31.2" r="1"/>
    <circle class="st5" cx="108.8" cy="31.2" r="1"/>
    <circle class="st5" cx="95.9" cy="31.2" r="1"/>
    <circle class="st5" cx="82.9" cy="31.2" r="1"/>
    <circle class="st5" cx="70" cy="31.2" r="1"/>
    <circle class="st5" cx="57.1" cy="31.2" r="1"/>
    <circle class="st5" cx="44.1" cy="31.2" r="1"/>
    <circle class="st5" cx="31.2" cy="31.2" r="1"/>
    <circle class="st5" cx="18.2" cy="31.2" r="1"/>
    <circle class="st5" cx="5.3" cy="31.2" r="1"/>
  </g>
  <g class="st8">
    <circle class="st5" cx="134.7" cy="44.1" r="1"/>
    <circle class="st5" cx="121.8" cy="44.1" r="1"/>
    <circle class="st5" cx="108.8" cy="44.1" r="1"/>
    <circle class="st5" cx="95.9" cy="44.1" r="1"/>
    <circle class="st0" cx="82.9" cy="44.1" r="1"/>
    <circle class="st0" cx="70" cy="44.1" r="1"/>
    <circle class="st0" cx="57.1" cy="44.1" r="1"/>
    <circle class="st5" cx="44.1" cy="44.1" r="1"/>
    <circle class="st5" cx="31.2" cy="44.1" r="1"/>
    <circle class="st5" cx="18.2" cy="44.1" r="1"/>
    <circle class="st5" cx="5.3" cy="44.1" r="1"/>
  </g>
  <g class="st8">
    <circle class="st5" cx="134.7" cy="57.1" r="1"/>
    <circle class="st5" cx="121.8" cy="57.1" r="1"/>
    <circle class="st5" cx="108.8" cy="57.1" r="1"/>
    <circle class="st5" cx="95.9" cy="57.1" r="1"/>
    <circle class="st0" cx="82.9" cy="57.1" r="1"/>
    <circle class="st0" cx="70" cy="57.1" r="1"/>
    <circle class="st0" cx="57.1" cy="57.1" r="1"/>
    <circle class="st5" cx="44.1" cy="57.1" r="1"/>
    <circle class="st5" cx="31.2" cy="57.1" r="1"/>
    <circle class="st5" cx="18.2" cy="57.1" r="1"/>
    <circle class="st5" cx="5.3" cy="57.1" r="1"/>
  </g>
  <g class="st8">
    <circle class="st5" cx="134.7" cy="70" r="1"/>
    <circle class="st5" cx="121.8" cy="70" r="1"/>
    <circle class="st5" cx="108.8" cy="70" r="1"/>
    <circle class="st0" cx="95.9" cy="70" r="1"/>
    <circle class="st0" cx="82.9" cy="70" r="1"/>
    <circle class="st0" cx="70" cy="70" r="1"/>
    <circle class="st0" cx="57.1" cy="70" r="1"/>
    <circle class="st0" cx="44.1" cy="70" r="1"/>
    <circle class="st5" cx="31.2" cy="70" r="1"/>
    <circle class="st5" cx="18.2" cy="70" r="1"/>
    <circle class="st5" cx="5.3" cy="70" r="1"/>
  </g>
  <g class="st8">
    <circle class="st5" cx="134.7" cy="82.9" r="1"/>
    <circle class="st5" cx="121.8" cy="82.9" r="1"/>
    <circle class="st0" cx="108.8" cy="82.9" r="1"/>
    <circle class="st0" cx="95.9" cy="82.9" r="1"/>
    <circle class="st0" cx="82.9" cy="82.9" r="1"/>
    <circle class="st0" cx="70" cy="82.9" r="1"/>
    <circle class="st0" cx="57.1" cy="82.9" r="1"/>
    <circle class="st0" cx="44.1" cy="82.9" r="1"/>
    <circle class="st5" cx="31.2" cy="82.9" r="1"/>
    <circle class="st5" cx="18.2" cy="82.9" r="1"/>
    <circle class="st5" cx="5.3" cy="82.9" r="1"/>
  </g>
  <g class="st8">
    <circle class="st5" cx="134.7" cy="95.9" r="1"/>
    <circle class="st0" cx="121.8" cy="95.9" r="1"/>
    <circle class="st0" cx="108.8" cy="95.9" r="1"/>
    <circle class="st0" cx="95.9" cy="95.9" r="1"/>
    <circle class="st0" cx="82.9" cy="95.9" r="1"/>
    <circle class="st0" cx="70" cy="95.9" r="1"/>
    <circle class="st0" cx="57.1" cy="95.9" r="1"/>
    <circle class="st0" cx="44.1" cy="95.9" r="1"/>
    <circle class="st0" cx="31.2" cy="95.9" r="1"/>
    <circle class="st0" cx="18.2" cy="95.9" r="1"/>
    <circle class="st5" cx="5.3" cy="95.9" r="1"/>
  </g>
  <g class="st8">
    <circle class="st5" cx="134.7" cy="108.8" r="1"/>
    <circle class="st5" cx="121.8" cy="108.8" r="1"/>
    <circle class="st5" cx="108.8" cy="108.8" r="1"/>
    <circle class="st5" cx="95.9" cy="108.8" r="1"/>
    <circle class="st5" cx="82.9" cy="108.8" r="1"/>
    <circle class="st0" cx="70" cy="108.8" r="1"/>
    <circle class="st0" cx="57.1" cy="108.8" r="1"/>
    <circle class="st0" cx="44.1" cy="108.8" r="1"/>
    <circle class="st5" cx="31.2" cy="108.8" r="1"/>
    <circle class="st5" cx="18.2" cy="108.8" r="1"/>
    <circle class="st5" cx="5.3" cy="108.8" r="1"/>
  </g>
  <g class="st8">
    <circle class="st5" cx="134.7" cy="121.8" r="1"/>
    <circle class="st5" cx="121.8" cy="121.8" r="1"/>
    <circle class="st5" cx="108.8" cy="121.8" r="1"/>
    <circle class="st5" cx="95.9" cy="121.8" r="1"/>
    <circle class="st5" cx="82.9" cy="121.8" r="1"/>
    <circle class="st5" cx="70" cy="121.8" r="1"/>
    <circle class="st5" cx="57.1" cy="121.8" r="1"/>
    <circle class="st5" cx="44.1" cy="121.8" r="1"/>
    <circle class="st5" cx="31.2" cy="121.8" r="1"/>
    <circle class="st5" cx="18.2" cy="121.8" r="1"/>
    <circle class="st5" cx="5.3" cy="121.8" r="1"/>
  </g>
  <g class="st8">
    <circle class="st5" cx="134.7" cy="134.7" r="1"/>
    <circle class="st5" cx="121.8" cy="134.7" r="1"/>
    <circle class="st5" cx="108.8" cy="134.7" r="1"/>
    <circle class="st5" cx="95.9" cy="134.7" r="1"/>
    <circle class="st5" cx="82.9" cy="134.7" r="1"/>
    <circle class="st5" cx="70" cy="134.7" r="1"/>
    <circle class="st5" cx="57.1" cy="134.7" r="1"/>
    <circle class="st5" cx="44.1" cy="134.7" r="1"/>
    <circle class="st5" cx="31.2" cy="134.7" r="1"/>
    <circle class="st5" cx="18.2" cy="134.7" r="1"/>
    <circle class="st5" cx="5.3" cy="134.7" r="1"/>
  </g>
  <g>
    <line class="st0" x1="70.7" y1="58.3" x2="75.3" y2="51.9"/>
    <polyline class="st7" points="75.3 51.9 69.8 42.9 69.8 42.9 69.8 42.9 62.4 35 58.3 41.5 57.4 51.3 75.3 51.9"/>
    <polygon class="st10" points="70.7 58.3 50.3 60.1 57.4 51.3 75.3 51.9 70.7 58.3"/>
    <polygon class="st6" points="58.2 94.4 34 88.2 12.1 100.8 28.2 100.8 39.2 109.3 47.4 100.9 58.2 94.4"/>
    <polyline class="st4" points="58.2 94.4 34 88.2 44.5 74.1 69.1 73.7 69.1 73.7 58.2 94.4"/>
    <polygon class="st2" points="75.3 51.9 85.1 46.8 78.3 42.3 69.8 42.9 75.3 51.9"/>
    <polygon class="st13" points="75.3 51.9 94.9 62.4 85.1 46.8 75.3 51.9"/>
    <polygon class="st9" points="75.3 51.9 70.7 58.3 69.1 73.7 95.1 68.8 94.9 62.4 75.3 51.9"/>
    <polygon class="st14" points="113.7 81.1 107.2 77.9 86.7 98.5 127.9 98.5 113.7 81.1"/>
    <polyline class="st11" points="86.7 98.5 107.2 77.9 104 74.1 100.9 72 95.1 68.8 69.1 73.7 58.2 94.4 86.7 98.5"/>
    <polygon class="st3" points="47.4 100.9 39.2 109.3 53.4 107.4 68.6 107.4 86.7 98.5 58.2 94.4 47.4 100.9"/>
    <polyline class="st12" points="69.8 42.9 69.8 42.9 78.3 42.3 75.3 38.2 62.4 35 69.8 42.9"/>
    <polygon class="st1" points="44.5 74.1 50.3 60.1 70.7 58.3 69.1 73.7 44.5 74.1"/>
  </g>
</svg>